<svg xmlns="http://www.w3.org/2000/svg" aria-hidden="true">
  <symbol id="a-lion" viewBox="0 0 24 24"><circle fill="none" stroke="currentColor" stroke-width="1.75" cx="12" cy="12" r="7"/><circle fill="none" stroke="currentColor" stroke-width="1.5" cx="12" cy="12" r="10"/><circle fill="currentColor" cx="12" cy="12" r="2.5"/></symbol>
  <symbol id="a-eagle" viewBox="0 0 24 24"><path fill="none" stroke="currentColor" stroke-width="1.75" stroke-linejoin="round" d="M2 12s4-4 10-4 10 4 10 4-4 4-10 4-10-4-10-4z"/><path fill="none" stroke="currentColor" stroke-width="1.5" d="M8 10h8M10 8l4 4M10 16l4-4"/></symbol>
  <symbol id="a-dolphin" viewBox="0 0 24 24"><path fill="none" stroke="currentColor" stroke-width="1.75" stroke-linecap="round" d="M4 14c2-6 8-9 14-7 2 6-4 11-10 9-2-1-3-1-4 1"/><path fill="currentColor" d="M3 13l2 2-1 3 3-2z"/></symbol>
  <symbol id="a-bear" viewBox="0 0 24 24"><circle fill="none" stroke="currentColor" stroke-width="1.5" cx="8" cy="8" r="2"/><circle fill="none" stroke="currentColor" stroke-width="1.5" cx="16" cy="8" r="2"/><ellipse fill="none" stroke="currentColor" stroke-width="1.75" cx="12" cy="14" rx="7" ry="6"/></symbol>
  <symbol id="a-wolf" viewBox="0 0 24 24"><path fill="none" stroke="currentColor" stroke-width="1.75" stroke-linejoin="round" d="M4 20 7 10l3 4 2-8 2 8 3-4 3 10"/><path fill="currentColor" d="M9 12h1.5v1H9zM13.5 12H15v1h-1.5z"/></symbol>
  <symbol id="a-fox" viewBox="0 0 24 24"><path fill="none" stroke="currentColor" stroke-width="1.75" d="M6 20 9 8l3 4 3-4 3 12"/><path fill="none" stroke="currentColor" stroke-width="1.5" d="M9 8 7 4M15 8l2-4"/></symbol>
  <symbol id="a-cat" viewBox="0 0 24 24"><path fill="none" stroke="currentColor" stroke-width="1.75" d="M12 7c-2 0-3.5 1.5-3.5 3.5V13c0 2 1.5 3.5 3.5 3.5s3.5-1.5 3.5-3.5v-2.5C15.5 8.5 14 7 12 7z"/><path fill="none" stroke="currentColor" stroke-width="1.75" d="M9 7 8 4M15 7l1-3"/><circle fill="currentColor" cx="10" cy="12" r="1"/><circle fill="currentColor" cx="14" cy="12" r="1"/></symbol>
  <symbol id="a-rabbit" viewBox="0 0 24 24"><path fill="none" stroke="currentColor" stroke-width="1.75" d="M9 4v6M11 3v7"/><ellipse fill="none" stroke="currentColor" stroke-width="1.75" cx="12" cy="16" rx="5" ry="4"/><circle fill="currentColor" cx="10" cy="15" r="0.8"/><circle fill="currentColor" cx="14" cy="15" r="0.8"/></symbol>
</svg>
