<svg xmlns="http://www.w3.org/2000/svg" aria-hidden="true">
  <symbol id="i-wrench" viewBox="0 0 24 24"><path fill="none" stroke="currentColor" stroke-width="1.75" stroke-linecap="round" stroke-linejoin="round" d="M14.7 6.3a1 1 0 0 0 0 1.4l1.6 1.6a1 1 0 0 0 1.4 0l3.77-3.77a6 6 0 0 1-7.94 7.94l-6.91 6.91a2.12 2.12 0 0 1-3-3l6.91-6.91a6 6 0 0 1 7.94-7.94l-3.76 3.76z"/></symbol>
  <symbol id="i-cat" viewBox="0 0 24 24"><path fill="none" stroke="currentColor" stroke-width="1.75" stroke-linecap="round" stroke-linejoin="round" d="M12 6c-2.2 0-4 1.6-4 4v2c0 .8.2 1.6.6 2.3L8 20h8l-.4-5.7c.4-.7.6-1.5.6-2.3v-2c0-2.4-1.8-4-4-4z"/><path fill="none" stroke="currentColor" stroke-width="1.75" stroke-linecap="round" d="M9 6 8 3M15 6l1-3"/><circle fill="currentColor" cx="9.5" cy="11" r="1"/><circle fill="currentColor" cx="14.5" cy="11" r="1"/></symbol>
  <symbol id="i-parking" viewBox="0 0 24 24"><circle fill="none" stroke="currentColor" stroke-width="1.75" cx="12" cy="12" r="9"/><path fill="currentColor" d="M10.2 7.5H14c1.4 0 2.4 1 2.4 2.4 0 1.5-1 2.5-2.5 2.5h-1.4V17h-2.3V7.5zm2 3.6c.7 0 1.1-.4 1.1-1.1 0-.7-.4-1.1-1.1-1.1h-1v2.2h1z"/></symbol>
  <symbol id="i-target" viewBox="0 0 24 24"><circle fill="none" stroke="currentColor" stroke-width="1.75" cx="12" cy="12" r="10"/><circle fill="none" stroke="currentColor" stroke-width="1.75" cx="12" cy="12" r="6"/><circle fill="none" stroke="currentColor" stroke-width="1.75" cx="12" cy="12" r="2"/></symbol>
  <symbol id="i-brain" viewBox="0 0 24 24"><path fill="none" stroke="currentColor" stroke-width="1.75" stroke-linecap="round" stroke-linejoin="round" d="M12 5a3 3 0 0 0-3 3v1a3 3 0 1 0-3 3 3 3 0 0 0 3 3h1"/><path fill="none" stroke="currentColor" stroke-width="1.75" stroke-linecap="round" stroke-linejoin="round" d="M12 5a3 3 0 0 1 3 3v1a3 3 0 1 1 3 3 3 3 0 0 1-3 3h-1"/><path fill="none" stroke="currentColor" stroke-width="1.75" stroke-linecap="round" d="M12 17v3M9 20h6"/></symbol>
  <symbol id="i-gear" viewBox="0 0 24 24"><circle fill="none" stroke="currentColor" stroke-width="1.75" cx="12" cy="12" r="3"/><path fill="none" stroke="currentColor" stroke-width="1.75" stroke-linecap="round" d="M12 1v2M12 21v2M4.22 4.22l1.42 1.42M18.36 18.36l1.42 1.42M1 12h2M21 12h2M4.22 19.78l1.42-1.42M18.36 5.64l1.42-1.42"/></symbol>
  <symbol id="i-gamepad" viewBox="0 0 24 24"><path fill="none" stroke="currentColor" stroke-width="1.75" stroke-linecap="round" d="M6 11h4M8 9v4"/><circle fill="currentColor" cx="17" cy="10" r="1"/><circle fill="currentColor" cx="19" cy="12" r="1"/><path fill="none" stroke="currentColor" stroke-width="1.75" stroke-linecap="round" stroke-linejoin="round" d="M2 12.5C2 9 4 7 7.5 7h9C20 7 22 9 22 12.5a4.5 4.5 0 0 1-4.5 4.5c-1.5 0-2.8-.7-3.5-2L14 14h-4l-.5 1c-.7 1.3-2 2-3.5 2A4.5 4.5 0 0 1 2 12.5z"/></symbol>
  <symbol id="i-music" viewBox="0 0 24 24"><path fill="none" stroke="currentColor" stroke-width="1.75" stroke-linecap="round" d="M9 18V5l12-2v13"/><circle fill="none" stroke="currentColor" stroke-width="1.75" cx="6" cy="18" r="3"/><circle fill="none" stroke="currentColor" stroke-width="1.75" cx="18" cy="16" r="3"/></symbol>
  <symbol id="i-numbers" viewBox="0 0 24 24"><path fill="none" stroke="currentColor" stroke-width="1.75" stroke-linecap="round" d="M4 9h16M4 15h16M10 3v18M14 3v18"/></symbol>
  <symbol id="i-lock" viewBox="0 0 24 24"><rect fill="none" stroke="currentColor" stroke-width="1.75" x="5" y="11" width="14" height="10" rx="2"/><path fill="none" stroke="currentColor" stroke-width="1.75" stroke-linecap="round" d="M7 11V7a5 5 0 0 1 10 0v4"/></symbol>
  <symbol id="i-phone" viewBox="0 0 24 24"><rect fill="none" stroke="currentColor" stroke-width="1.75" x="7" y="2" width="10" height="20" rx="2"/><path fill="none" stroke="currentColor" stroke-width="1.75" d="M12 18h.01"/></symbol>
  <symbol id="i-fan" viewBox="0 0 24 24"><circle fill="none" stroke="currentColor" stroke-width="1.75" cx="12" cy="12" r="2"/><path fill="none" stroke="currentColor" stroke-width="1.75" stroke-linecap="round" d="M12 10c-2-4-2-6 0-8s4-2 6 0M12 14c2 4 2 6 0 8s-4 2-6 0M10 12c-4-2-6-2-8 0s-2 4 0 6M14 12c4 2 6 2 8 0s2-4 0-6"/></symbol>
  <symbol id="i-search" viewBox="0 0 24 24"><circle fill="none" stroke="currentColor" stroke-width="1.75" cx="11" cy="11" r="7"/><path fill="none" stroke="currentColor" stroke-width="1.75" stroke-linecap="round" d="m21 21-4.3-4.3"/></symbol>
  <symbol id="i-paw" viewBox="0 0 24 24"><ellipse fill="currentColor" cx="12" cy="16" rx="3.5" ry="2.5"/><circle fill="currentColor" cx="8" cy="10" r="2"/><circle fill="currentColor" cx="12" cy="7" r="2"/><circle fill="currentColor" cx="16" cy="10" r="2"/></symbol>
  <symbol id="i-wheel" viewBox="0 0 24 24"><circle fill="none" stroke="currentColor" stroke-width="1.75" cx="12" cy="12" r="9"/><path fill="none" stroke="currentColor" stroke-width="1.75" stroke-linecap="round" d="M12 3v4M12 17v4M3 12h4M17 12h4M5.6 5.6l2.9 2.9M15.5 15.5l2.9 2.9M5.6 18.4l2.9-2.9M15.5 8.5l2.9-2.9"/></symbol>
  <symbol id="i-coin" viewBox="0 0 24 24"><ellipse fill="none" stroke="currentColor" stroke-width="1.75" cx="12" cy="12" rx="8" ry="9"/><path fill="none" stroke="currentColor" stroke-width="1.75" d="M12 3v18"/></symbol>
  <symbol id="i-lightning" viewBox="0 0 24 24"><path fill="currentColor" d="M13 2 3 14h8l-1 8 10-12h-8l1-8z"/></symbol>
  <symbol id="i-go" viewBox="0 0 24 24"><circle fill="currentColor" cx="8" cy="12" r="4"/><circle fill="#ffffff" stroke="currentColor" stroke-width="1.75" cx="16" cy="12" r="4"/></symbol>
  <symbol id="i-chess" viewBox="0 0 24 24"><path fill="none" stroke="currentColor" stroke-width="1.75" stroke-linecap="round" d="M8 21h8M10 21V10l2-6 2 6v11"/><path fill="none" stroke="currentColor" stroke-width="1.75" d="M6 10c0-2 2.5-4 6-4s6 2 6 4"/></symbol>
  <symbol id="i-dino" viewBox="0 0 24 24"><path fill="none" stroke="currentColor" stroke-width="1.75" stroke-linecap="round" d="M4 19h16M6 19V11l3-6h5l2 4v10"/><path fill="none" stroke="currentColor" stroke-width="1.75" stroke-linecap="round" d="M9 5 7 3M14 8h4l2 3v3h-3"/></symbol>
  <symbol id="i-cards" viewBox="0 0 24 24"><rect fill="none" stroke="currentColor" stroke-width="1.75" x="3" y="6" width="11" height="14" rx="1"/><rect fill="none" stroke="currentColor" stroke-width="1.75" x="10" y="4" width="11" height="14" rx="1"/></symbol>
  <symbol id="i-atom" viewBox="0 0 24 24"><circle fill="none" stroke="currentColor" stroke-width="1.75" cx="12" cy="12" r="1"/><ellipse fill="none" stroke="currentColor" stroke-width="1.75" cx="12" cy="12" rx="10" ry="4" transform="rotate(60 12 12)"/><ellipse fill="none" stroke="currentColor" stroke-width="1.75" cx="12" cy="12" rx="10" ry="4" transform="rotate(-60 12 12)"/><ellipse fill="none" stroke="currentColor" stroke-width="1.75" cx="12" cy="12" rx="10" ry="4"/></symbol>
  <symbol id="i-spade" viewBox="0 0 24 24"><path fill="currentColor" d="M12 3C9 8 5 10 5 14a3.5 3.5 0 0 0 7 0h0a3.5 3.5 0 0 0 7 0c0-4-4-6-7-11z"/><path fill="currentColor" d="M9 20h6l-1.5 3h-3L9 20z"/></symbol>
  <symbol id="i-heart-suit" viewBox="0 0 24 24"><path fill="currentColor" d="M12 21s-7-4.35-7-10a4 4 0 0 1 7-2 4 4 0 0 1 7 2c0 5.65-7 10-7 10z"/></symbol>
  <symbol id="i-joker" viewBox="0 0 24 24"><path fill="none" stroke="currentColor" stroke-width="1.75" stroke-linejoin="round" d="M12 2l1.5 5L19 8l-4 3 1.5 5L12 14l-4.5 2L9 11 5 8l5.5-1L12 2z"/><path fill="none" stroke="currentColor" stroke-width="1.75" stroke-linecap="round" d="M8 18h8M9 22h6"/></symbol>
  <symbol id="i-pencil" viewBox="0 0 24 24"><path fill="none" stroke="currentColor" stroke-width="1.75" stroke-linecap="round" stroke-linejoin="round" d="M12 20h9M16.5 3.5a2.12 2.12 0 0 1 3 3L7 19l-4 1 1-4L16.5 3.5z"/></symbol>
  <symbol id="i-trash" viewBox="0 0 24 24"><path fill="none" stroke="currentColor" stroke-width="1.75" stroke-linecap="round" d="M4 7h16M10 11v6M14 11v6M6 7l1 14h10l1-14"/><path fill="none" stroke="currentColor" stroke-width="1.75" d="M9 7V5h6v2"/></symbol>
  <symbol id="i-close" viewBox="0 0 24 24"><path fill="none" stroke="currentColor" stroke-width="2" stroke-linecap="round" d="M18 6 6 18M6 6l12 12"/></symbol>
</svg>
