<svg xmlns="http://www.w3.org/2000/svg" aria-hidden="true">
  <symbol id="cw-walk" viewBox="0 0 24 24"><circle fill="none" stroke="currentColor" stroke-width="1.75" cx="12" cy="5" r="2"/><path fill="none" stroke="currentColor" stroke-width="1.75" stroke-linecap="round" stroke-linejoin="round" d="M9 22v-6l-2-5h2l2 5v6M15 22v-5l2-8h-2l-1 4"/></symbol>
  <symbol id="cw-map" viewBox="0 0 24 24"><path fill="none" stroke="currentColor" stroke-width="1.75" stroke-linejoin="round" d="M3 6l6-3 6 3 6-3v15l-6 3-6-3-6 3V6z"/><path fill="none" stroke="currentColor" stroke-width="1.75" d="M9 3v15M15 6v15"/></symbol>
  <symbol id="cw-coffee" viewBox="0 0 24 24"><path fill="none" stroke="currentColor" stroke-width="1.75" d="M18 8h1a4 4 0 0 1 0 8h-1M5 8h10v5a4 4 0 0 1-4 4H9a4 4 0 0 1-4-4V8z"/><path fill="none" stroke="currentColor" stroke-width="1.75" d="M6 2v2M10 2v2M14 2v2"/></symbol>
  <symbol id="cw-sparkle" viewBox="0 0 24 24"><path fill="currentColor" d="M12 2l1.2 5.2L18 8l-4.8 1.8L12 15l-1.2-5.2L6 8l4.8-1.8L12 2z"/></symbol>
  <symbol id="cw-pin" viewBox="0 0 24 24"><path fill="none" stroke="currentColor" stroke-width="1.75" stroke-linecap="round" stroke-linejoin="round" d="M12 21s7-5 7-11a7 7 0 1 0-14 0c0 6 7 11 7 11z"/><circle fill="currentColor" cx="12" cy="10" r="2.5"/></symbol>
  <symbol id="cw-flag" viewBox="0 0 24 24"><path fill="none" stroke="currentColor" stroke-width="1.75" stroke-linecap="round" d="M4 22V4"/><path fill="currentColor" d="M4 4h10l-2 4 2 4H4V4z"/></symbol>
  <symbol id="cw-tree" viewBox="0 0 24 24"><path fill="none" stroke="currentColor" stroke-width="1.75" d="M12 22V12M8 14l4-10 4 10"/></symbol>
  <symbol id="cw-column" viewBox="0 0 24 24"><path fill="none" stroke="currentColor" stroke-width="1.75" d="M8 22V8h8v14M6 8h12M10 8V5h4v3"/></symbol>
  <symbol id="cw-flower" viewBox="0 0 24 24"><circle fill="currentColor" cx="12" cy="12" r="2"/><circle fill="currentColor" cx="12" cy="8" r="2"/><circle fill="currentColor" cx="12" cy="16" r="2"/><circle fill="currentColor" cx="8" cy="12" r="2"/><circle fill="currentColor" cx="16" cy="12" r="2"/></symbol>
  <symbol id="cw-cake" viewBox="0 0 24 24"><path fill="none" stroke="currentColor" stroke-width="1.75" d="M4 22h16M6 22v-8a2 2 0 0 1 2-2h8a2 2 0 0 1 2 2v8"/><path fill="none" stroke="currentColor" stroke-width="1.75" d="M8 12V8h8v4"/></symbol>
  <symbol id="cw-croissant" viewBox="0 0 24 24"><path fill="none" stroke="currentColor" stroke-width="1.75" stroke-linecap="round" d="M4 16c2-4 6-6 8-6s6 2 8 6"/><path fill="none" stroke="currentColor" stroke-width="1.5" d="M7 14c1-2 3-3 5-3s4 1 5 3"/></symbol>
  <symbol id="cw-sun" viewBox="0 0 24 24"><circle fill="none" stroke="currentColor" stroke-width="1.75" cx="12" cy="12" r="4"/><path fill="none" stroke="currentColor" stroke-width="1.75" d="M12 2v2M12 20v2M4.93 4.93l1.41 1.41M17.66 17.66l1.41 1.41M2 12h2M20 12h2M4.93 19.07l1.41-1.41M17.66 6.34l1.41-1.41"/></symbol>
  <symbol id="cw-cloud" viewBox="0 0 24 24"><path fill="none" stroke="currentColor" stroke-width="1.75" d="M7 18a4 4 0 0 1 0-8 4 4 0 0 1 7.7-1A5 5 0 0 1 17 18H7z"/></symbol>
  <symbol id="cw-rain" viewBox="0 0 24 24"><path fill="none" stroke="currentColor" stroke-width="1.75" d="M7 16a4 4 0 0 1 0-8 4 4 0 0 1 7.7-1A5 5 0 0 1 17 16"/><path fill="none" stroke="currentColor" stroke-width="1.75" d="M8 20v2M12 18v4M16 20v2"/></symbol>
  <symbol id="cw-snow" viewBox="0 0 24 24"><path fill="none" stroke="currentColor" stroke-width="1.75" d="M7 15a4 4 0 0 1 0-8 4 4 0 0 1 7.7-1A5 5 0 0 1 17 15"/><path fill="none" stroke="currentColor" stroke-width="1.5" d="M10 19l2-2 2 2M12 17v4"/></symbol>
  <symbol id="cw-wind" viewBox="0 0 24 24"><path fill="none" stroke="currentColor" stroke-width="1.75" stroke-linecap="round" d="M3 8h10a3 3 0 1 0-3-3M5 12h12a3 3 0 1 1-3 3M7 16h8"/></symbol>
  <symbol id="cw-partly" viewBox="0 0 24 24"><path fill="none" stroke="currentColor" stroke-width="1.75" d="M7 19a4 4 0 0 1 0-8h.5"/><circle fill="none" stroke="currentColor" stroke-width="1.5" cx="16" cy="8" r="3"/><path fill="none" stroke="currentColor" stroke-width="1.5" d="M16 3v1M19.5 8H21M16 13v1M12.5 8H11"/></symbol>
  <symbol id="cw-tag" viewBox="0 0 24 24"><path fill="none" stroke="currentColor" stroke-width="1.75" d="M3 5h6l11 11-4 4L3 9V5z"/><circle fill="currentColor" cx="7.5" cy="8.5" r="1"/></symbol>
  <symbol id="cw-clock" viewBox="0 0 24 24"><circle fill="none" stroke="currentColor" stroke-width="1.75" cx="12" cy="12" r="9"/><path fill="none" stroke="currentColor" stroke-width="1.75" stroke-linecap="round" d="M12 7v5l3 3"/></symbol>
  <symbol id="cw-search" viewBox="0 0 24 24"><circle fill="none" stroke="currentColor" stroke-width="1.75" cx="11" cy="11" r="7"/><path fill="none" stroke="currentColor" stroke-width="1.75" d="m21 21-4.3-4.3"/></symbol>
  <symbol id="cw-camera" viewBox="0 0 24 24"><path fill="none" stroke="currentColor" stroke-width="1.75" d="M4 9h3l2-2h6l2 2h3a2 2 0 0 1 2 2v8a2 2 0 0 1-2 2H4a2 2 0 0 1-2-2v-8a2 2 0 0 1 2-2z"/><circle fill="none" stroke="currentColor" stroke-width="1.75" cx="12" cy="14" r="3"/></symbol>
</svg>
